<?xml version="1.0" encoding="UTF-8"?>
<svg id="a" data-name="svg307" xmlns="http://www.w3.org/2000/svg" width="500" height="160" viewBox="0 0 500 160">
  <defs>
    <style>
      .ar {
        fill: #1c1c1b;
      }

      .as {
        fill: #ff0107;
      }

      .at {
        fill: #ff4900;
      }

      .au {
        fill: #ff7000;
      }

      .av {
        fill: #ffce00;
      }

      .aw {
        fill: #ffa300;
      }
    </style>
  </defs>
  <path id="b" data-name="path63" class="ar" d="M59.89,89.99h-29.93v-29.99h29.94v29.99Z"/>
  <path id="c" data-name="path65" class="ar" d="M89.8,119.98h-29.93v-29.99h29.94v29.99Z"/>
  <path id="d" data-name="path67" class="ar" d="M89.82,89.99h-29.93v-29.99h29.94v29.99Z"/>
  <path id="e" data-name="use69" class="ar" d="M119.75,89.99h-29.93v-29.99h29.94v29.99Z"/>
  <path id="f" data-name="path71" class="ar" d="M59.9,59.99h-29.93v-29.99h29.94v29.99Z"/>
  <path id="g" data-name="use73" class="ar" d="M119.76,59.99h-29.93v-29.99h29.94v29.99Z"/>
  <path id="h" data-name="path75" class="ar" d="M29.96,89.99H.03v-29.99h29.94v29.99Z"/>
  <path id="i" data-name="path77" class="ar" d="M29.97,59.99H.04v-29.99h29.94v29.99Z"/>
  <path id="j" data-name="path79" class="ar" d="M29.99,30H.06V0h29.94v29.99Z"/>
  <path id="k" data-name="use81" class="ar" d="M149.71,30h-29.93V0h29.94v29.99Z"/>
  <path id="l" data-name="path83" class="ar" d="M29.94,119.98H.01v-29.99h29.94v29.99Z"/>
  <path id="m" data-name="path85" class="ar" d="M29.93,149.98H0v-29.99h29.94v29.99Z"/>
  <path id="n" data-name="use87" class="ar" d="M149.68,89.99h-29.93v-29.99h29.94v29.99Z"/>
  <path id="o" data-name="use89" class="ar" d="M149.69,59.99h-29.93v-29.99h29.94v29.99Z"/>
  <path id="p" data-name="use91" class="ar" d="M149.66,119.98h-29.93v-29.99h29.94v29.99Z"/>
  <path id="q" data-name="use93" class="ar" d="M149.65,149.98h-29.93v-29.99h29.94v29.99Z"/>
  <path id="r" data-name="path97" class="au" d="M72.33,89.98h-29.93v-29.99h29.94l-.02,29.99Z"/>
  <path id="s" data-name="use99" class="at" d="M102.25,119.98h-29.93v-29.99h29.94v29.99Z"/>
  <path id="t" data-name="use101" class="au" d="M102.26,89.98h-29.93v-29.99h29.94v29.99Z"/>
  <path id="u" data-name="use103" class="au" d="M132.19,89.98h-29.93v-29.99h29.94v29.99Z"/>
  <path id="v" data-name="path107" class="aw" d="M72.35,59.99h-29.93v-29.99h29.94l-.02,29.99Z"/>
  <path id="w" data-name="use109" class="aw" d="M132.21,59.99h-29.93v-29.99h29.94v29.99Z"/>
  <path id="x" data-name="path113" class="au" d="M42.41,89.98H12.48v-29.99h29.94l-.02,29.99Z"/>
  <path id="y" data-name="path115" class="aw" d="M42.42,59.99H12.49v-29.99h29.94l-.02,29.99Z"/>
  <path id="z" data-name="path117" class="av" d="M42.43,29.99H12.51V0h29.94l-.02,29.99Z"/>
  <path id="aa" data-name="use119" class="av" d="M162.15,29.99h-29.93V0h29.94v29.99Z"/>
  <path id="ab" data-name="path123" class="at" d="M42.39,119.98H12.46v-29.99h29.94l-.02,29.99Z"/>
  <path id="ac" data-name="path125" class="as" d="M42.38,149.97H12.45v-29.99h29.94l-.02,29.99Z"/>
  <path id="ad" data-name="use127" class="au" d="M162.12,89.98h-29.93v-29.99h29.94v29.99Z"/>
  <path id="ae" data-name="path129" class="aw" d="M162.14,59.99h-29.93v-29.99h29.94v29.99Z"/>
  <path id="af" data-name="use131" class="at" d="M162.11,119.98h-29.93v-29.99h29.94v29.99Z"/>
  <path id="ag" data-name="use133" class="as" d="M162.09,149.97h-29.93v-29.99h29.94v29.99Z"/>
  <path id="ah" data-name="path137" class="ar" d="M211.77,28.4h10.91l4.5,16.33,1.54,6.37h.28l1.53-6.37,4.52-16.33h10.91v46.07h-8.8v-14.26c0-5.19.91-16.42,1.39-21.4h-.21l-3.53,12.36-3.58,11.1h-5.05l-3.64-11.1-3.29-12.36h-.24c.53,4.98,1.39,16.21,1.39,21.4v14.26h-8.66V28.4Z"/>
  <path id="ai" data-name="path139" class="ar" d="M255.25,65.73h10.73v-28.58h-10.73v-8.74h31.87v8.74h-10.73v28.58h10.73v8.74h-31.87v-8.74Z"/>
  <path id="aj" data-name="path141" class="ar" d="M295.91,68.66l5.97-7.16c3.47,2.85,7.76,4.81,12.22,4.81s6.45-1.71,6.45-3.96c0-3.32-2.73-4.12-7.08-5.94l-5.99-2.56c-5.09-1.94-9.74-5.85-9.74-12.56,0-7.63,6.86-13.73,16.85-13.73,5.53,0,11.11,2.08,15.27,6.03l-5.24,6.57c-3.24-2.33-6.1-3.6-10.59-3.6-3.43,0-5.75,1.42-5.75,4.11s3.08,3.79,7.49,5.44l5.62,2.39c6.02,2.26,9.82,6.02,9.82,12.53,0,7.66-6.41,14.29-17.79,14.29-6.21,0-12.63-2.28-17.5-6.65"/>
  <path id="ak" data-name="path143" class="ar" d="M350.63,37.14h-13.78v-8.74h37.96v8.74h-13.78v37.33h-10.4v-37.33Z"/>
  <path id="al" data-name="path145" class="ar" d="M392.32,36.68h5.07c5.46,0,8.4,1.53,8.4,6.08s-2.93,6.87-8.4,6.87h-5.07v-12.95ZM418.19,74.47l-10.4-18.43c4.91-2.22,8.19-6.52,8.19-13.29,0-10.96-8.01-14.35-17.75-14.35h-16.34v46.07h10.42v-16.57h5.46l8.78,16.57h11.64Z"/>
  <path id="am" data-name="path147" class="ar" d="M435.46,55.39l1.09-4.24,3.57-14.86h.28c1.11,4.86,2.51,10.26,3.67,14.86l1.08,4.24h-9.69ZM450,74.47h11.03l-14.32-46.07h-12.47l-14.32,46.07h10.65l2.81-10.96h13.83l2.79,10.96Z"/>
  <path id="an" data-name="path149" class="ar" d="M469.16,28.4h10.38v37.33h20.46v8.74h-30.84V28.4Z"/>
  <path id="ao" data-name="path151" class="ar" d="M223.85,129.29l1.09-4.24,3.57-14.86h.28c1.11,4.86,2.51,10.26,3.67,14.86l1.08,4.24h-9.69ZM238.39,148.39h11.03l-14.32-46.09h-12.47l-14.32,46.09h10.65l2.81-10.96h13.84l2.79,10.96Z"/>
  <path id="ap" data-name="path153" class="ar" d="M255.25,139.63h10.73v-28.58h-10.73v-8.74h31.87v8.74h-10.73v28.58h10.73v8.74h-31.87v-8.74Z"/>
  <path id="aq" data-name="path155" class="ar" d="M296.58,152.18h33.86v7.82h-33.86v-7.82Z"/>
</svg>